<?xml version="1.0" encoding="utf-8"?>
<!-- Generator: Adobe Illustrator 13.0.3, SVG Export Plug-In . SVG Version: 6.00 Build 14948)  -->
<!DOCTYPE svg PUBLIC "-//W3C//DTD SVG 1.0//EN" "http://www.w3.org/TR/2001/REC-SVG-20010904/DTD/svg10.dtd">
<svg version="1.0" id="レイヤー_1" xmlns="http://www.w3.org/2000/svg" xmlns:xlink="http://www.w3.org/1999/xlink" x="0px"
	 y="0px" width="281px" height="285px" viewBox="-0.826 -0.359 281 285" enable-background="new -0.826 -0.359 281 285"
	 xml:space="preserve">
<path d="M121.5,131.927H24.001V98H121.5c5.789,0,10.5-4.711,10.5-10.5v-2c0-5.789-4.711-10.5-10.5-10.5H23.5
	c-5.789,0-10.5,4.711-10.5,10.5v0.3h-1.5c-5.79,0-10.502,4.713-10.502,10.502v106c0,5.79,4.712,10.5,10.502,10.5h1.999
	c5.79,0,10.502-4.71,10.502-10.5v-47.374H121.5c5.791,0,10.5-4.709,10.5-10.499v-2C132,136.639,127.29,131.927,121.5,131.927z
	 M276.5,143.8h-0.999v-0.837c0-5.788-4.712-10.5-10.501-10.5h-97.999V98H265c5.789,0,10.501-4.711,10.501-10.5v-2
	c0-5.789-4.712-10.501-10.501-10.501h-97.999c-5.789,0-10.501,4.712-10.501,10.501v0.302h-1.999c-5.791,0-10.501,4.709-10.501,10.5
	v37.001c0,5.789,4.71,10.498,10.501,10.498h1.999v1.164c0,5.789,4.712,10.501,10.501,10.501h96.997v34.461h-96.999
	c-5.79,0-10.5,4.71-10.5,10.5v2.001c0,5.79,4.71,10.5,10.5,10.5h98c5.79,0,10.502-4.71,10.502-10.5v-0.625h0.999
	c5.791,0,10.501-4.71,10.501-10.501v-37C287.001,148.511,282.291,143.8,276.5,143.8z"/>
<path fill="#FFFFFF" d="M274.5,196.802c-3.037,0-5.5-2.463-5.5-5.5v-37c0-3.038,2.463-5.5,5.5-5.5h2c3.037,0,5.5,2.462,5.5,5.5v37
	c0,3.037-2.463,5.5-5.5,5.5H274.5z"/>
<path fill="#FFFFFF" d="M127,87.5c0,3.038-2.463,5.5-5.5,5.5h-98c-3.038,0-5.5-2.462-5.5-5.5v-2c0-3.038,2.462-5.5,5.5-5.5h98
	c3.037,0,5.5,2.462,5.5,5.5V87.5z"/>
<path fill="#FFFFFF" d="M127,144.428c0,3.037-2.463,5.5-5.5,5.5h-98c-3.038,0-5.5-2.463-5.5-5.5v-2c0-3.038,2.462-5.5,5.5-5.5h98
	c3.037,0,5.5,2.462,5.5,5.5V144.428z"/>
<path fill="#FFFFFF" d="M270.5,87.5c0,3.038-2.463,5.5-5.5,5.5h-98c-3.037,0-5.5-2.462-5.5-5.5v-2c0-3.038,2.463-5.5,5.5-5.5h98
	c3.037,0,5.5,2.462,5.5,5.5V87.5z"/>
<path fill="#FFFFFF" d="M270.5,144.964c0,3.037-2.463,5.5-5.5,5.5h-98c-3.037,0-5.5-2.463-5.5-5.5v-2c0-3.038,2.463-5.5,5.5-5.5h98
	c3.037,0,5.5,2.462,5.5,5.5V144.964z"/>
<path fill="#FFFFFF" d="M270.5,202.428c0,3.037-2.463,5.5-5.5,5.5h-98c-3.037,0-5.5-2.463-5.5-5.5v-2c0-3.038,2.463-5.5,5.5-5.5h98
	c3.037,0,5.5,2.462,5.5,5.5V202.428z"/>
<path fill="#FFFFFF" d="M11.5,207.802c-3.038,0-5.5-2.463-5.5-5.5v-106c0-3.038,2.462-5.5,5.5-5.5h2c3.038,0,5.5,2.462,5.5,5.5v106
	c0,3.037-2.462,5.5-5.5,5.5H11.5z"/>
<path fill="#FFFFFF" d="M154.5,138.802c-3.037,0-5.5-2.463-5.5-5.5v-37c0-3.038,2.463-5.5,5.5-5.5h2c3.037,0,5.5,2.462,5.5,5.5v37
	c0,3.037-2.463,5.5-5.5,5.5H154.5z"/>
</svg>
